<svg xmlns="http://www.w3.org/2000/svg" xmlns:xlink="http://www.w3.org/1999/xlink" viewBox="0,0,256,256" width="500px" height="500px" fill-rule="nonzero"><g transform="translate(-10.24,-10.24) scale(1.08,1.08)"><g fill="#fcd96d" fill-rule="nonzero" stroke="none" stroke-width="1" stroke-linecap="butt" stroke-linejoin="miter" stroke-miterlimit="10" stroke-dasharray="" stroke-dashoffset="0" font-family="none" font-weight="none" font-size="none" text-anchor="none" style="mix-blend-mode: normal"><g transform="scale(5.12,5.12)"><path d="M36,2c-2.81641,0 -5.17187,1.71484 -6.28125,4.125c-0.24219,-0.03906 -0.45703,-0.125 -0.71875,-0.125c-1.35937,0 -2.59766,0.55078 -3.5,1.4375c-1.46484,-0.38281 -2.53906,-0.40234 -3.03125,-0.40625l-1.75,-1.75l-0.28125,-0.25l-0.375,-0.03125c0,0 -4.20703,-0.28125 -8.46875,1.65625c-4.26172,1.9375 -8.59375,6.28125 -8.59375,14.875v5.15625c-0.14062,0.17578 -0.21875,0.24609 -0.40625,0.625c-0.30859,0.62891 -0.59375,1.55859 -0.59375,2.75c0,1.84766 1.12109,3.15625 2.125,3.90625c0.76953,0.57422 1.21094,0.69141 1.53125,0.8125c0.18359,0.55859 1.08203,3.27734 3.03125,6.3125c2.16016,3.35938 5.55469,6.90625 10.3125,6.90625c4.75781,0 8.15234,-3.54687 10.3125,-6.90625c1.94922,-3.03516 2.84766,-5.75391 3.03125,-6.3125c0.32031,-0.12109 0.76172,-0.23828 1.53125,-0.8125c1.00391,-0.75 2.125,-2.05859 2.125,-3.90625c0,-1.19141 -0.28516,-2.12109 -0.59375,-2.75c-0.1875,-0.37891 -0.26562,-0.44922 -0.40625,-0.625v-5.15625c0,-0.68359 -0.03906,-1.34375 -0.09375,-1.96875c0.64453,0.27344 1.34375,0.4375 2.09375,0.4375c1.76563,0 3.28125,-0.84766 4.375,-2.0625c0.20703,0.02344 0.40625,0.0625 0.625,0.0625c3.30078,0 6,-2.69922 6,-6c0,-3.21094 -2.57031,-5.79687 -5.75,-5.9375c-1.12109,-2.375 -3.46094,-4.0625 -6.25,-4.0625zM36,4c2.19531,0 4.03906,1.42188 4.71875,3.375l0.25,0.71875l0.78125,-0.0625c0.21875,-0.01562 0.28516,-0.03125 0.25,-0.03125c2.21875,0 4,1.78125 4,4c0,2.21875 -1.78125,4 -4,4c-0.25,0 -0.49609,-0.01172 -0.75,-0.0625l-0.625,-0.125l-0.375,0.5c-0.73047,1.01563 -1.90625,1.6875 -3.25,1.6875c-1.35547,0 -2.52344,-0.66016 -3.25,-1.6875l-0.40625,-0.5625l-0.65625,0.15625c-0.24609,0.05859 -0.46484,0.09375 -0.6875,0.09375c-1.125,0 -2.07422,-0.61328 -2.59375,-1.53125l-0.25,-0.4375l-0.5,-0.0625c-1.49609,-0.17969 -2.65625,-1.42187 -2.65625,-2.96875c0,-1.66797 1.33203,-3 3,-3c0.3125,0 0.60938,0.07813 0.9375,0.1875l0.96875,0.3125l0.3125,-0.96875c0.62891,-2.03516 2.52734,-3.53125 4.78125,-3.53125zM18.6875,7c0.42578,-0.01562 0.74219,-0.00391 0.875,0l2.03125,2.03125l0.4375,-0.03125c0,0 0.95703,-0.02344 2.3125,0.25c-0.20703,0.54688 -0.34375,1.13281 -0.34375,1.75c0,2.41016 1.75391,4.35156 4.03125,4.8125c0.90234,1.26563 2.29688,2.1875 3.96875,2.1875c0.22656,0 0.41797,-0.0625 0.625,-0.09375c0.01953,0.02344 0.04297,0.03906 0.0625,0.0625c0.19922,1.05859 0.3125,2.21875 0.3125,3.5625v5.875l0.28125,0.3125c0,0 0.12109,0.08203 0.3125,0.46875c0.19141,0.38672 0.40625,1.00781 0.40625,1.875c0,1.05859 -0.59766,1.75 -1.3125,2.28125c-0.71484,0.53125 -1.4375,0.78125 -1.4375,0.78125l-0.5,0.15625l-0.15625,0.5c0,0 -0.97656,3.11719 -2.96875,6.21875c-1.99219,3.10156 -4.88281,6 -8.625,6c-3.74219,0 -6.63281,-2.89844 -8.625,-6c-1.99219,-3.10156 -2.96875,-6.21875 -2.96875,-6.21875l-0.15625,-0.5l-0.5,-0.15625c0,0 -0.72266,-0.25 -1.4375,-0.78125c-0.71484,-0.53125 -1.3125,-1.22266 -1.3125,-2.28125c0,-0.86719 0.21484,-1.48828 0.40625,-1.875c0.19141,-0.38672 0.3125,-0.46875 0.3125,-0.46875l0.28125,-0.3125v-5.875c0,-7.94922 3.66797,-11.36328 7.40625,-13.0625c2.58203,-1.17187 5,-1.42578 6.28125,-1.46875zM33,11c-0.55078,0 -1,0.44922 -1,1c0,0.55078 0.44922,1 1,1c0.55078,0 1,-0.44922 1,-1c0,-0.55078 -0.44922,-1 -1,-1zM37,11c-0.55078,0 -1,0.44922 -1,1c0,0.55078 0.44922,1 1,1c0.55078,0 1,-0.44922 1,-1c0,-0.55078 -0.44922,-1 -1,-1zM41,11c-0.55078,0 -1,0.44922 -1,1c0,0.55078 0.44922,1 1,1c0.55078,0 1,-0.44922 1,-1c0,-0.55078 -0.44922,-1 -1,-1zM21.8125,14.0625c-0.23047,0.03906 -0.44141,0.16406 -0.59375,0.34375c-4.08203,4.89453 -13.28125,5.65625 -13.28125,5.65625c-0.47266,0.02344 -0.86328,0.375 -0.9375,0.84375l-1,6c-0.08594,0.55078 0.29297,1.07031 0.84375,1.15625c0.55078,0.08594 1.07031,-0.29297 1.15625,-0.84375l0.875,-5.3125c1.19922,-0.08203 8.35547,-0.72266 13.0625,-5.40625c2.73047,3.58203 6.3125,4.97266 7.15625,5.25l0.90625,5.46875c0.08594,0.55078 0.60547,0.92969 1.15625,0.84375c0.55078,-0.08594 0.92969,-0.60547 0.84375,-1.15625l-1,-6c-0.05859,-0.38672 -0.33984,-0.70703 -0.71875,-0.8125c0,0 -4.98437,-1.56641 -7.4375,-5.5625c-0.21484,-0.35547 -0.625,-0.53906 -1.03125,-0.46875zM14.5,26c-0.10547,0 -0.21484,0.01172 -0.3125,0.03125c-1.76953,0.16406 -3.1875,1.65625 -3.1875,3.46875c-0.00391,0.35938 0.18359,0.69531 0.49609,0.87891c0.3125,0.17969 0.69531,0.17969 1.00781,0c0.3125,-0.18359 0.5,-0.51953 0.49609,-0.87891c0,-0.38672 0.14063,-0.73437 0.375,-1c0.27344,0.30859 0.67969,0.5 1.125,0.5c0.44531,0 0.85156,-0.19141 1.125,-0.5c0.23438,0.26563 0.375,0.61328 0.375,1c-0.00391,0.35938 0.18359,0.69531 0.49609,0.87891c0.3125,0.17969 0.69531,0.17969 1.00781,0c0.3125,-0.18359 0.5,-0.51953 0.49609,-0.87891c0,-1.8125 -1.41797,-3.30469 -3.1875,-3.46875c-0.09766,-0.01953 -0.20703,-0.03125 -0.3125,-0.03125zM23.5,26c-1.92187,0 -3.5,1.57813 -3.5,3.5c-0.00391,0.35938 0.18359,0.69531 0.49609,0.87891c0.3125,0.17969 0.69531,0.17969 1.00781,0c0.3125,-0.18359 0.5,-0.51953 0.49609,-0.87891c0,-0.38672 0.14063,-0.73437 0.375,-1c0.27344,0.30859 0.67969,0.5 1.125,0.5c0.44531,0 0.85156,-0.19141 1.125,-0.5c0.23438,0.26563 0.375,0.61328 0.375,1c-0.00391,0.35938 0.18359,0.69531 0.49609,0.87891c0.3125,0.17969 0.69531,0.17969 1.00781,0c0.3125,-0.18359 0.5,-0.51953 0.49609,-0.87891c0,-1.92187 -1.57812,-3.5 -3.5,-3.5z"></path></g></g></g></svg>