<svg xmlns="http://www.w3.org/2000/svg" xmlns:xlink="http://www.w3.org/1999/xlink" viewBox="0,0,256,256" width="64px" height="64px" fill-rule="nonzero"><g transform="translate(-8.96,-8.96) scale(1.07,1.07)"><g fill="#fcd96d" fill-rule="nonzero" stroke="none" stroke-width="1" stroke-linecap="butt" stroke-linejoin="miter" stroke-miterlimit="10" stroke-dasharray="" stroke-dashoffset="0" font-family="none" font-weight="none" font-size="none" text-anchor="none" style="mix-blend-mode: normal"><g transform="scale(4,4)"><path d="M5,2c-1.654,0 -3,1.346 -3,3c0,1.302 0.839,2.40241 2,2.81641v4.18359c0,0.265 0.10497,0.52003 0.29297,0.70703l4,4c0.187,0.188 0.44203,0.29297 0.70703,0.29297h10.99609l0.70117,2.30469c-0.49,0.437 -0.95658,0.90258 -1.39258,1.39258l-2.42383,-0.73633c-0.408,-0.125 -0.85352,0.02309 -1.10352,0.37109c-0.387,0.538 -0.74708,1.09497 -1.08008,1.66797h-3.88281c-0.413,-1.161 -1.51245,-2 -2.81445,-2c-1.654,0 -3,1.346 -3,3c0,1.654 1.346,3 3,3c1.302,0 2.40241,-0.839 2.81641,-2h2.90625c-0.063,0.331 0.03506,0.67606 0.28906,0.91406l1.86523,1.74609c-0.205,0.619 -0.37581,1.25158 -0.50781,1.89258l-2.50195,0.58398c-0.417,0.097 -0.72558,0.45095 -0.76758,0.87695c-0.033,0.336 -0.03183,0.65633 -0.04883,0.98633h-4.23437c-0.414,-1.161 -1.51441,-2 -2.81641,-2c-1.654,0 -3,1.346 -3,3c0,1.654 1.346,3 3,3c1.302,0 2.40241,-0.839 2.81641,-2h4.23437c0.017,0.33 0.01778,0.65033 0.05078,0.98633c0.042,0.426 0.35058,0.77995 0.76758,0.87695l2.50195,0.58398c0.132,0.64 0.30086,1.27262 0.50586,1.89063l-1.86328,1.74609c-0.254,0.238 -0.35402,0.58402 -0.29102,0.91602h-2.90625c-0.415,-1.161 -1.51441,-2 -2.81641,-2c-1.654,0 -3,1.346 -3,3c0,1.654 1.346,3 3,3c1.302,0 2.40241,-0.839 2.81641,-2h3.88086c0.332,0.572 0.69208,1.12997 1.08008,1.66797c0.25,0.347 0.69052,0.49609 1.10352,0.37109l2.42383,-0.73633c0.437,0.491 0.90258,0.95658 1.39258,1.39258l-0.70117,2.30469h-10.99609c-0.265,0 -0.52003,0.10497 -0.70703,0.29297l-4,4c-0.188,0.187 -0.29297,0.44203 -0.29297,0.70703v4.18359c-1.161,0.414 -2,1.51441 -2,2.81641c0,1.654 1.346,3 3,3c1.654,0 3,-1.346 3,-3c0,-1.302 -0.839,-2.40241 -2,-2.81641v-3.76953l3.41406,-3.41406h12.11914c0.726,0.448 1.46823,0.8678 2.24023,1.2168c0.073,0.033 0.14956,0.0475 0.22656,0.0625v4.30664l-3.41406,3.41406h-1.76953c-0.414,-1.161 -1.51441,-2 -2.81641,-2c-1.654,0 -3,1.346 -3,3c0,1.654 1.346,3 3,3c1.302,0 2.40241,-0.839 2.81641,-2h2.18359c0.265,0 0.52003,-0.10497 0.70703,-0.29297l4,-4c0.188,-0.187 0.29297,-0.44203 0.29297,-0.70703v-6.16992l0.66016,-0.70703c0.619,0.205 1.25158,0.37581 1.89258,0.50781l0.58398,2.50195c0.097,0.417 0.45095,0.72558 0.87695,0.76758c0.336,0.033 0.65633,0.03183 0.98633,0.04883v4.23633c-1.161,0.414 -2,1.51441 -2,2.81641c0,1.654 1.346,3 3,3c1.654,0 3,-1.346 3,-3c0,-1.302 -0.839,-2.40241 -2,-2.81641v-4.23633c0.33,-0.017 0.65133,-0.01583 0.98633,-0.04883c0.426,-0.042 0.77995,-0.35058 0.87695,-0.76758l0.58398,-2.50195c0.64,-0.132 1.27262,-0.30281 1.89063,-0.50781l0.66211,0.70703v6.16992c0,0.265 0.10497,0.52003 0.29297,0.70703l4,4c0.187,0.188 0.44203,0.29297 0.70703,0.29297h2.18359c0.414,1.161 1.51441,2 2.81641,2c1.654,0 3,-1.346 3,-3c0,-1.654 -1.346,-3 -3,-3c-1.302,0 -2.40241,0.839 -2.81641,2h-1.76953l-3.41406,-3.41406v-4.30664c0.076,-0.015 0.15256,-0.0295 0.22656,-0.0625c0.771,-0.349 1.51324,-0.76584 2.24023,-1.21484h12.11914l3.41406,3.41211v3.76953c-1.161,0.414 -2,1.51441 -2,2.81641c0,1.654 1.346,3 3,3c1.654,0 3,-1.346 3,-3c0,-1.302 -0.839,-2.40241 -2,-2.81641v-4.18359c0,-0.265 -0.10497,-0.52003 -0.29297,-0.70703l-4,-4c-0.187,-0.188 -0.44203,-0.29297 -0.70703,-0.29297h-10.99609l-0.70117,-2.30469c0.491,-0.437 0.95658,-0.90258 1.39258,-1.39258l2.42383,0.73633c0.409,0.124 0.85256,-0.02409 1.10156,-0.37109c0.388,-0.538 0.75003,-1.09597 1.08203,-1.66797h3.88086c0.414,1.161 1.51441,2 2.81641,2c1.654,0 3,-1.346 3,-3c0,-1.654 -1.346,-3 -3,-3c-1.302,0 -2.40241,0.839 -2.81641,2h-2.90625c0.063,-0.331 -0.03506,-0.67606 -0.28906,-0.91406l-1.86523,-1.74609c0.205,-0.619 0.37581,-1.25158 0.50781,-1.89258l2.50195,-0.58398c0.417,-0.097 0.72558,-0.45095 0.76758,-0.87695c0.033,-0.336 0.03183,-0.65633 0.04883,-0.98633h4.23633c0.414,1.161 1.51441,2 2.81641,2c1.654,0 3,-1.346 3,-3c0,-1.654 -1.346,-3 -3,-3c-1.302,0 -2.40241,0.839 -2.81641,2h-4.23633c-0.017,-0.33 -0.01583,-0.65133 -0.04883,-0.98633c-0.042,-0.426 -0.35058,-0.77995 -0.76758,-0.87695l-2.50195,-0.58398c-0.132,-0.64 -0.30281,-1.27263 -0.50781,-1.89062l1.86523,-1.74609c0.254,-0.238 0.35206,-0.58402 0.28906,-0.91602h2.90625c0.414,1.161 1.51441,2 2.81641,2c1.654,0 3,-1.346 3,-3c0,-1.654 -1.346,-3 -3,-3c-1.302,0 -2.40241,0.839 -2.81641,2h-3.88086c-0.332,-0.572 -0.69208,-1.12997 -1.08008,-1.66797c-0.25,-0.347 -0.69351,-0.49609 -1.10352,-0.37109l-2.42383,0.73633c-0.437,-0.491 -0.90258,-0.95658 -1.39258,-1.39258l0.69922,-2.30469h10.99805c0.265,0 0.52003,-0.10497 0.70703,-0.29297l4,-4c0.188,-0.187 0.29297,-0.44203 0.29297,-0.70703v-4.18359c1.161,-0.414 2,-1.51441 2,-2.81641c0,-1.654 -1.346,-3 -3,-3c-1.654,0 -3,1.346 -3,3c0,1.302 0.839,2.40241 2,2.81641v3.76953l-3.41406,3.41406h-12.11914c-0.726,-0.449 -1.46923,-0.8678 -2.24023,-1.2168c-0.073,-0.033 -0.14956,-0.04655 -0.22656,-0.06055v-4.30859l3.41406,-3.41406h1.76953c0.414,1.161 1.51441,2 2.81641,2c1.654,0 3,-1.346 3,-3c0,-1.654 -1.346,-3 -3,-3c-1.302,0 -2.40241,0.839 -2.81641,2h-2.18359c-0.265,0 -0.52003,0.10497 -0.70703,0.29297l-4,4c-0.188,0.187 -0.29297,0.44203 -0.29297,0.70703v6.16992l-0.66016,0.70703c-0.619,-0.205 -1.25158,-0.37581 -1.89258,-0.50781l-0.58398,-2.50195c-0.097,-0.417 -0.45095,-0.72558 -0.87695,-0.76758c-0.336,-0.033 -0.65833,-0.03283 -0.98633,-0.04883v-4.23437c1.161,-0.414 2,-1.51441 2,-2.81641c0,-1.654 -1.346,-3 -3,-3c-1.654,0 -3,1.346 -3,3c0,1.302 0.839,2.40241 2,2.81641v4.23437c-0.328,0.017 -0.65133,0.01583 -0.98633,0.04883c-0.426,0.042 -0.77995,0.35058 -0.87695,0.76758l-0.58398,2.50195c-0.64,0.132 -1.27263,0.30281 -1.89062,0.50781l-0.66211,-0.70703v-6.16992c0,-0.265 -0.10497,-0.52003 -0.29297,-0.70703l-4,-4c-0.187,-0.188 -0.44203,-0.29297 -0.70703,-0.29297h-2.18359c-0.414,-1.161 -1.51441,-2 -2.81641,-2c-1.654,0 -3,1.346 -3,3c0,1.654 1.346,3 3,3c1.302,0 2.40241,-0.839 2.81641,-2h1.76953l3.41406,3.41406v4.30859c-0.076,0.015 -0.15256,0.02755 -0.22656,0.06055c-0.771,0.349 -1.51323,0.7678 -2.24023,1.2168h-12.11914l-3.41406,-3.41406v-3.76953c1.161,-0.414 2,-1.51441 2,-2.81641c0,-1.654 -1.346,-3 -3,-3zM5,4c0.551,0 1,0.449 1,1c0,0.551 -0.449,1 -1,1c-0.551,0 -1,-0.449 -1,-1c0,-0.551 0.449,-1 1,-1zM16,4c0.551,0 1,0.449 1,1c0,0.551 -0.449,1 -1,1c-0.551,0 -1,-0.449 -1,-1c0,-0.551 0.449,-1 1,-1zM32,4c0.551,0 1,0.449 1,1c0,0.551 -0.449,1 -1,1c-0.551,0 -1,-0.449 -1,-1c0,-0.551 0.449,-1 1,-1zM48,4c0.551,0 1,0.449 1,1c0,0.551 -0.449,1 -1,1c-0.551,0 -1,-0.449 -1,-1c0,-0.551 0.449,-1 1,-1zM59,4c0.551,0 1,0.449 1,1c0,0.551 -0.449,1 -1,1c-0.551,0 -1,-0.449 -1,-1c0,-0.551 0.449,-1 1,-1zM32,14c0.35725,0 0.71453,0.0107 1.08203,0.0332l0.56641,2.42773c0.092,0.394 0.41059,0.69181 0.80859,0.75781c0.961,0.159 1.9075,0.41295 2.8125,0.75195c0.378,0.141 0.80503,0.04205 1.08203,-0.25195l1.69336,-1.80664c0.642,0.322 1.26614,0.68498 1.86914,1.08399l-0.71484,2.34961c-0.118,0.387 0.01027,0.8065 0.32227,1.0625c0.752,0.62 1.44736,1.31631 2.06836,2.07031c0.256,0.312 0.6745,0.43927 1.0625,0.32227l2.35156,-0.71484c0.399,0.604 0.76199,1.22814 1.08398,1.86914l-1.80664,1.69336c-0.295,0.276 -0.39495,0.70303 -0.25195,1.08203c0.34,0.905 0.59295,1.8515 0.75195,2.8125c0.066,0.398 0.36381,0.71659 0.75781,0.80859l2.42773,0.56641c0.022,0.368 0.0332,0.72903 0.0332,1.08203c0,0.353 -0.0102,0.71403 -0.0332,1.08203l-2.42773,0.56641c-0.394,0.092 -0.69376,0.41059 -0.75977,0.80859c-0.159,0.961 -0.41295,1.9075 -0.75195,2.8125c-0.142,0.378 -0.04205,0.80603 0.25195,1.08203l1.80859,1.69336c-0.323,0.643 -0.68599,1.26714 -1.08398,1.86914l-2.35156,-0.71484c-0.387,-0.117 -0.8055,0.00831 -1.0625,0.32031c-0.619,0.752 -1.31336,1.44931 -2.06836,2.07031c-0.312,0.257 -0.44027,0.6755 -0.32227,1.0625l0.71484,2.35156c-0.604,0.399 -1.22814,0.76199 -1.86914,1.08398l-1.69336,-1.80859c-0.277,-0.295 -0.70603,-0.39495 -1.08203,-0.25195c-0.905,0.34 -1.8515,0.59295 -2.8125,0.75195c-0.398,0.066 -0.71659,0.36577 -0.80859,0.75977l-0.56641,2.42773c-0.735,0.045 -1.42906,0.045 -2.16406,0l-0.56641,-2.42773c-0.092,-0.394 -0.41059,-0.69376 -0.80859,-0.75977c-0.961,-0.159 -1.9075,-0.41295 -2.8125,-0.75195c-0.38,-0.143 -0.80603,-0.04205 -1.08203,0.25195l-1.69336,1.80859c-0.642,-0.322 -1.26614,-0.68498 -1.86914,-1.08398l0.71484,-2.35156c0.118,-0.387 -0.01027,-0.8065 -0.32227,-1.0625c-0.752,-0.619 -1.44736,-1.31336 -2.06836,-2.06836c-0.257,-0.313 -0.6765,-0.44127 -1.0625,-0.32227l-2.35156,0.71484c-0.399,-0.604 -0.76198,-1.22814 -1.08399,-1.86914l1.80664,-1.69336c0.295,-0.276 0.39495,-0.70303 0.25195,-1.08203c-0.34,-0.905 -0.59295,-1.8515 -0.75195,-2.8125c-0.066,-0.398 -0.36381,-0.71659 -0.75781,-0.80859l-2.42773,-0.56641c-0.022,-0.368 -0.0332,-0.72903 -0.0332,-1.08203c0,-0.353 0.0102,-0.71403 0.0332,-1.08203l2.42773,-0.56641c0.394,-0.092 0.69377,-0.41059 0.75977,-0.80859c0.159,-0.961 0.41295,-1.9075 0.75195,-2.8125c0.142,-0.378 0.04205,-0.80603 -0.25195,-1.08203l-1.80859,-1.69336c0.323,-0.643 0.68599,-1.26714 1.08399,-1.86914l2.35156,0.71484c0.388,0.119 0.8055,-0.00926 1.0625,-0.32227c0.619,-0.752 1.31436,-1.44736 2.06836,-2.06836c0.312,-0.257 0.44027,-0.6755 0.32227,-1.0625l-0.71484,-2.35156c0.604,-0.399 1.22814,-0.76198 1.86914,-1.08399l1.69336,1.80664c0.276,0.294 0.70403,0.39395 1.08203,0.25195c0.905,-0.34 1.8515,-0.59295 2.8125,-0.75195c0.398,-0.066 0.71659,-0.36381 0.80859,-0.75781l0.56641,-2.42773c0.3675,-0.0225 0.72478,-0.0332 1.08203,-0.0332zM32,21c-4.473,0 -9,1.374 -9,4v5v5v5c0,2.626 4.527,4 9,4c4.473,0 9,-1.374 9,-4v-5v-5v-5c0,-2.626 -4.527,-4 -9,-4zM8,22c0.551,0 1,0.449 1,1c0,0.551 -0.449,1 -1,1c-0.551,0 -1,-0.449 -1,-1c0,-0.551 0.449,-1 1,-1zM56,22c0.551,0 1,0.449 1,1c0,0.551 -0.449,1 -1,1c-0.551,0 -1,-0.449 -1,-1c0,-0.551 0.449,-1 1,-1zM32,23c4.547,0 7,1.419 7,2c0,0.581 -2.453,2 -7,2c-4.547,0 -7,-1.419 -7,-2c0,-0.581 2.453,-2 7,-2zM25,27.59961c1.736,0.923 4.374,1.40039 7,1.40039c2.626,0 5.264,-0.47739 7,-1.40039v2.40039c0,0.581 -2.453,2 -7,2c-4.547,0 -7,-1.419 -7,-2zM5,31c0.551,0 1,0.449 1,1c0,0.551 -0.449,1 -1,1c-0.551,0 -1,-0.449 -1,-1c0,-0.551 0.449,-1 1,-1zM59,31c0.551,0 1,0.449 1,1c0,0.551 -0.449,1 -1,1c-0.551,0 -1,-0.449 -1,-1c0,-0.551 0.449,-1 1,-1zM25,32.59961c1.736,0.923 4.374,1.40039 7,1.40039c2.626,0 5.264,-0.47739 7,-1.40039v2.40039c0,0.581 -2.453,2 -7,2c-4.547,0 -7,-1.419 -7,-2zM25,37.59961c1.736,0.923 4.374,1.40039 7,1.40039c2.626,0 5.264,-0.47739 7,-1.40039v2.40039c0,0.581 -2.453,2 -7,2c-4.547,0 -7,-1.419 -7,-2zM8,40c0.551,0 1,0.449 1,1c0,0.551 -0.449,1 -1,1c-0.551,0 -1,-0.449 -1,-1c0,-0.551 0.449,-1 1,-1zM56,40c0.551,0 1,0.449 1,1c0,0.551 -0.449,1 -1,1c-0.551,0 -1,-0.449 -1,-1c0,-0.551 0.449,-1 1,-1zM5,58c0.551,0 1,0.449 1,1c0,0.551 -0.449,1 -1,1c-0.551,0 -1,-0.449 -1,-1c0,-0.551 0.449,-1 1,-1zM16,58c0.551,0 1,0.449 1,1c0,0.551 -0.449,1 -1,1c-0.551,0 -1,-0.449 -1,-1c0,-0.551 0.449,-1 1,-1zM32,58c0.551,0 1,0.449 1,1c0,0.551 -0.449,1 -1,1c-0.551,0 -1,-0.449 -1,-1c0,-0.551 0.449,-1 1,-1zM48,58c0.551,0 1,0.449 1,1c0,0.551 -0.449,1 -1,1c-0.551,0 -1,-0.449 -1,-1c0,-0.551 0.449,-1 1,-1zM59,58c0.551,0 1,0.449 1,1c0,0.551 -0.449,1 -1,1c-0.551,0 -1,-0.449 -1,-1c0,-0.551 0.449,-1 1,-1z"></path></g></g></g></svg>