<svg xmlns="http://www.w3.org/2000/svg" xmlns:xlink="http://www.w3.org/1999/xlink" viewBox="0,0,256,256" width="64px" height="64px" fill-rule="nonzero"><g transform="translate(-12.8,-12.8) scale(1.1,1.1)"><g fill="#fcd96d" fill-rule="nonzero" stroke="none" stroke-width="1" stroke-linecap="butt" stroke-linejoin="miter" stroke-miterlimit="10" stroke-dasharray="" stroke-dashoffset="0" font-family="none" font-weight="none" font-size="none" text-anchor="none" style="mix-blend-mode: normal"><g transform="scale(0.5,0.5)"><path d="M316.36914,23.4082c-5.522,0 -10,4.477 -10,10c0,5.523 4.478,10 10,10c72.689,0 129.63086,56.93891 129.63086,129.62891c0,2.164 -0.5287,-1.51927 17.4043,75.92773h-39.62696c-5.522,0 -10,4.477 -10,10v86.66602h-54.44531c-5.522,0 -10,4.478 -10,10v103.02148l-134.38867,-100.29687c-4.427,-3.304 -10.69114,-2.3918 -13.99414,2.0332c-3.303,4.427 -2.3928,10.6921 2.0332,13.9961l126.23047,94.20703h-153.21289v-190c0,-5.522 -4.477,-10 -10,-10c-5.523,0 -10,4.478 -10,10v190h-20v-150c0,-5.522 -4.477,-10 -10,-10c-5.523,0 -10,4.478 -10,10v150h-20v-83.22657c0,-5.522 -4.477,-10 -10,-10c-5.523,0 -10,4.478 -10,10v83.22657h-30c-5.523,0 -10,4.478 -10,10c0,5.522 4.477,10 10,10h380c5.522,0 10,-4.478 10,-10c0,-5.522 -4.478,-10 -10,-10h-56.66797v-102.96094h54.44531c5.522,0 10,-4.478 10,-10v-86.66797h42.22266c6.435,0 11.19828,-6.00258 9.73828,-12.26758l-19.74219,-84.82617c-0.613,-81.896 -66.14095,-148.46094 -149.62695,-148.46094zM209.39648,28.59375c-4.683,0 -8.73976,3.24836 -9.75976,7.81836l-5.89258,26.38086c-6.06,1.796 -11.92883,4.21905 -17.54883,7.24805l-22.78906,-14.4668c-3.954,-2.51 -9.11669,-1.93895 -12.42969,1.37305l-15.29492,15.29297c-3.312,3.312 -3.88009,8.47864 -1.37109,12.43164l14.46484,22.7871c-3.029,5.62 -5.45205,11.48983 -7.24805,17.54883l-26.3789,5.89258c-4.57,1.021 -7.82031,5.07777 -7.82031,9.75977v21.60742c0.001,4.679 3.24359,8.73281 7.80859,9.75781l26.37305,5.92383c1.82,6.111 4.24786,11.97711 7.25585,17.53711l-14.45507,22.77148c-2.51,3.953 -1.94091,9.11769 1.37109,12.42969l15.29492,15.29492c3.312,3.312 8.47669,3.8821 12.42969,1.3711l22.77148,-14.45508c5.56,3.008 11.42511,5.43586 17.53711,7.25586l5.92578,26.37304c1.02501,4.564 5.07786,7.8086 9.75586,7.8086h21.60938c4.678,0 8.73181,-3.2426 9.75781,-7.8086l5.92188,-26.36132c6.09,-1.808 11.95701,-4.23863 17.54101,-7.26563l22.76758,14.45313c3.951,2.51 9.11864,1.9409 12.43164,-1.3711l15.29492,-15.29492c3.312,-3.312 3.8811,-8.47669 1.3711,-12.42969l-14.45508,-22.76953c3.009,-5.561 5.43486,-11.42706 7.25586,-17.53906l26.37304,-5.92383c4.56401,-1.025 7.8086,-5.07981 7.8086,-9.75781v-21.60742c0,-4.678 -3.24359,-8.73182 -7.8086,-9.75782l-26.36132,-5.92187c-1.809,-6.091 -4.23763,-11.95797 -7.26563,-17.54297l14.45313,-22.76562c2.51,-3.954 1.9399,-9.12064 -1.3711,-12.43164l-15.29492,-15.29492c-3.313,-3.312 -8.47964,-3.88009 -12.43164,-1.37109l-22.76953,14.45508c-5.561,-3.009 -11.42611,-5.43586 -17.53711,-7.25586l-5.92578,-26.37305c-1.025,-4.564 -5.07786,-7.80664 -9.75586,-7.80664zM56,38.59375v20h20v-20zM76,58.59375v20h20v-20zM76,78.59375h-20v20h20zM56,78.59375v-20h-20v20zM217.4082,48.5957h5.59375l5.50391,24.50195c0.847,3.771 3.79055,6.71545 7.56055,7.56445c8.25,1.857 15.98714,5.06053 22.99414,9.51953c3.273,2.083 7.45251,2.08486 10.72851,0.00586l21.15821,-13.43164l3.96289,3.96289l-13.43164,21.15625c-2.079,3.275 -2.07714,7.45652 0.00586,10.72852c4.495,7.063 7.69567,14.79075 9.51367,22.96875c0.841,3.782 3.79131,6.73693 7.57031,7.58593l24.50391,5.50586v5.60352l-24.50391,5.50586c-3.771,0.847 -6.7145,3.79054 -7.5625,7.56054c-1.857,8.25 -5.06148,15.98715 -9.52148,22.99414c-2.08301,3.272 -2.08486,7.45352 -0.00586,10.72852l13.43164,21.1582l-3.96289,3.96289l-21.15821,-13.43164c-3.273,-2.079 -7.45356,-2.07614 -10.72656,0.00586c-7.065,4.496 -14.79275,7.69472 -22.96875,9.51172c-3.782,0.84 -6.73694,3.79031 -7.58594,7.57031l-5.50586,24.50391h-5.60351l-5.50586,-24.50391c-0.847,-3.771 -3.79055,-6.71545 -7.56055,-7.56445c-8.25,-1.857 -15.98614,-5.05858 -22.99414,-9.51758c-3.273,-2.083 -7.45451,-2.08681 -10.72851,-0.00781l-21.15821,13.43164l-3.96289,-3.96289l13.4336,-21.1582c2.079,-3.274 2.07518,-7.45652 -0.00782,-10.72852c-4.459,-7.007 -7.66058,-14.74414 -9.51758,-22.99414c-0.849,-3.77 -3.79345,-6.71355 -7.56445,-7.56055l-24.50391,-5.5039v-5.59375l24.52735,-5.48047c3.791,-0.847 6.74798,-3.81152 7.58398,-7.60352c1.788,-8.105 4.98496,-15.85434 9.50196,-23.02734c2.057,-3.268 2.05046,-7.4275 -0.01953,-10.6875l-13.4336,-21.1582l3.96289,-3.96289l21.15821,13.43164c3.25999,2.071 7.42145,2.07753 10.68945,0.01953c7.172,-4.517 14.91839,-7.712 23.02539,-9.5c3.793,-0.836 6.75847,-3.79494 7.60547,-7.58594zM220.20117,97.42188c-13.863,-0.00025 -27.72675,5.27804 -38.28125,15.83204c-21.069,21.069 -21.03864,55.38028 0.06836,76.48828c21.042,21.041 55.38288,21.03995 76.42188,0.00195c21.094,-21.096 21.12336,-55.43523 0.06836,-76.49023c-10.5525,-10.553 -24.41435,-15.83179 -38.27735,-15.83204zM220.20117,117.42773c8.74588,-0.00012 17.49122,3.32275 24.13672,9.96875c13.272,13.271 13.24164,34.89508 -0.06836,48.20508c-13.223,13.224 -34.91472,13.223 -48.13672,0c-13.309,-13.31 -13.34131,-34.93408 -0.07031,-48.20508c6.646,-6.6455 15.3928,-9.96862 24.13867,-9.96875zM220.19922,130.34375c-11.677,0 -21.13205,9.40486 -21.12305,21.13086c0.004,5.652 2.2025,10.95836 6.1875,14.94336c8.236,8.236 21.63605,8.236 29.87305,0c3.985,-3.985 6.1825,-9.29136 6.1875,-14.94336c0.008,-11.711 -9.435,-21.13086 -21.125,-21.13086zM220.19922,150.34375c0.614,0 1.125,0.44423 1.125,1.11523c-0.003,1.513 -2.24805,1.502 -2.24805,0c0,-0.218 0.50705,-1.11523 1.12305,-1.11523zM74.1875,261.52344c-7.227,-0.00025 -14.45394,2.75326 -19.96094,8.25976c-10.989,10.99 -10.9757,28.88563 0.0293,39.89063c10.982,10.982 28.87833,10.983 39.86133,0c10.99,-10.988 11.03134,-28.88858 0.02734,-39.89258c-5.504,-5.5045 -12.73003,-8.25756 -19.95703,-8.25781zM73.88477,281.51953c4.28937,-0.11992 8.49241,3.13633 8.48828,8.18945c-0.003,4.519 -3.57855,8.19336 -8.18555,8.19336c-7.291,0 -10.96236,-8.83451 -5.81836,-13.97851c1.59812,-1.59813 3.56591,-2.34979 5.51563,-2.4043zM205.91211,316.37891c-2.87861,0.13401 -5.67745,1.50511 -7.54102,3.99023c-3.313,4.418 -2.418,10.687 2,14l69.62891,52.22461c4.398,3.3 10.67,2.438 14,-2c3.313,-4.418 2.418,-10.687 -2,-14l-69.62891,-52.22461c-1.93287,-1.45031 -4.22006,-2.09446 -6.45898,-1.99023zM436,388.59375v20h20v-20zM456,408.59375v20h20v-20zM456,428.59375h-20v20h20zM436,428.59375v-20h-20v20z"></path></g></g></g></svg>